<mxfile host="65bd71144e">
    <diagram id="okPNzLd8nGiKbHREjcO7" name="Page-1">
        <mxGraphModel dx="1548" dy="379" grid="1" gridSize="10" guides="1" tooltips="1" connect="1" arrows="1" fold="1" page="1" pageScale="1" pageWidth="850" pageHeight="1100" background="none" math="0" shadow="0">
            <root>
                <mxCell id="0"/>
                <mxCell id="1" parent="0"/>
                <mxCell id="6" style="edgeStyle=none;html=1;entryX=0.5;entryY=0;entryDx=0;entryDy=0;" edge="1" parent="1" source="2" target="3">
                    <mxGeometry relative="1" as="geometry"/>
                </mxCell>
                <mxCell id="8" style="edgeStyle=none;html=1;exitX=1;exitY=0.5;exitDx=0;exitDy=0;entryX=0;entryY=0.5;entryDx=0;entryDy=0;" edge="1" parent="1" source="2" target="4">
                    <mxGeometry relative="1" as="geometry"/>
                </mxCell>
                <mxCell id="2" value="while" style="rounded=1;whiteSpace=wrap;html=1;" vertex="1" parent="1">
                    <mxGeometry x="50" y="40" width="90" height="30" as="geometry"/>
                </mxCell>
                <mxCell id="7" style="edgeStyle=none;html=1;entryX=0.5;entryY=0;entryDx=0;entryDy=0;" edge="1" parent="1" source="3" target="5">
                    <mxGeometry relative="1" as="geometry"/>
                </mxCell>
                <mxCell id="10" style="edgeStyle=none;html=1;entryX=0;entryY=0.5;entryDx=0;entryDy=0;exitX=0;exitY=0.5;exitDx=0;exitDy=0;" edge="1" parent="1" source="3" target="2">
                    <mxGeometry relative="1" as="geometry">
                        <Array as="points">
                            <mxPoint y="135"/>
                            <mxPoint y="55"/>
                        </Array>
                    </mxGeometry>
                </mxCell>
                <mxCell id="3" value="false" style="rounded=1;whiteSpace=wrap;html=1;" vertex="1" parent="1">
                    <mxGeometry x="50" y="120" width="90" height="30" as="geometry"/>
                </mxCell>
                <mxCell id="9" style="edgeStyle=none;html=1;entryX=1;entryY=0.5;entryDx=0;entryDy=0;" edge="1" parent="1" source="4" target="5">
                    <mxGeometry relative="1" as="geometry">
                        <Array as="points">
                            <mxPoint x="255" y="215"/>
                        </Array>
                    </mxGeometry>
                </mxCell>
                <mxCell id="4" value="true" style="rounded=1;whiteSpace=wrap;html=1;" vertex="1" parent="1">
                    <mxGeometry x="210" y="40" width="90" height="30" as="geometry"/>
                </mxCell>
                <mxCell id="11" style="edgeStyle=none;html=1;" edge="1" parent="1" source="5">
                    <mxGeometry relative="1" as="geometry">
                        <mxPoint x="95" y="300" as="targetPoint"/>
                    </mxGeometry>
                </mxCell>
                <mxCell id="5" value="fim" style="rounded=1;whiteSpace=wrap;html=1;" vertex="1" parent="1">
                    <mxGeometry x="50" y="200" width="90" height="30" as="geometry"/>
                </mxCell>
                <mxCell id="12" value="fim do programa" style="ellipse;whiteSpace=wrap;html=1;" vertex="1" parent="1">
                    <mxGeometry x="55" y="300" width="80" height="40" as="geometry"/>
                </mxCell>
                <mxCell id="13" value="&lt;h1&gt;Pseudo_Codigo&lt;/h1&gt;&lt;div&gt;&lt;div&gt;&amp;nbsp;1&amp;nbsp; Configure o total como zero&lt;/div&gt;&lt;div&gt;&amp;nbsp;2 Configure o contador de notas como um&lt;/div&gt;&lt;div&gt;&amp;nbsp;3&amp;nbsp;&lt;/div&gt;&lt;div&gt;&amp;nbsp;4 Enquanto contador de notas for menor ou igual a dez&lt;/div&gt;&lt;div&gt;&amp;nbsp;5&amp;nbsp; &lt;span style=&quot;white-space: pre;&quot;&gt;&#9;&lt;/span&gt;Solicite para o usuário inserir a próxima nota&lt;/div&gt;&lt;div&gt;&amp;nbsp;6&amp;nbsp; &lt;span style=&quot;white-space: pre;&quot;&gt;&#9;&lt;/span&gt;Insira a próxima nota&lt;/div&gt;&lt;div&gt;&amp;nbsp;7&amp;nbsp; &lt;span style=&quot;white-space: pre;&quot;&gt;&#9;&lt;/span&gt;Adicione a nota ao total&lt;/div&gt;&lt;div&gt;&amp;nbsp;8&amp;nbsp; &lt;span style=&quot;white-space: pre;&quot;&gt;&#9;&lt;/span&gt;Adicione um ao contador de notas&lt;/div&gt;&lt;div&gt;&amp;nbsp;9&amp;nbsp;&lt;/div&gt;&lt;div&gt;&amp;nbsp;10 Configure a média da classe como o total dividido por dez&lt;/div&gt;&lt;div&gt;&amp;nbsp;11 Exibe a média da classe&lt;/div&gt;&lt;/div&gt;&lt;div&gt;&lt;br&gt;&lt;/div&gt;" style="text;html=1;strokeColor=#10739e;fillColor=#b1ddf0;spacing=5;spacingTop=-20;whiteSpace=wrap;overflow=hidden;rounded=0;fontColor=#000066;" vertex="1" parent="1">
                    <mxGeometry x="-360" y="40" width="340" height="220" as="geometry"/>
                </mxCell>
            </root>
        </mxGraphModel>
    </diagram>
</mxfile>